# xmcd
#
# Track frame offsets: 
#        150
#        17037
#        37172
#        53633
#        70749
#        85332
#        102956
#        126370
#        140155
#        156522
#        175410
#        197845
#        223770
#        248150
#        259212
#        278216
#        302610
#        323926
#        341942
#
# Disc length: 4795 seconds
#
# Revision: 5
# Processed by: cddbd v1.5.2PL0 Copyright (c) Steve Scherf et al.
# Submitted via: ExactAudioCopy v0.99pb4
#
DISCID=2e12b913
DTITLE=Old School Of Rock - Old School Of Rock [CD1)
DYEAR=2007
DGENRE=Rock
TTITLE0=Crazy Crazy Nights - Kiss
TTITLE1=Poison - Alice Cooper
TTITLE2=Alone - Heart
TTITLE3=Unskinny Bob - Poison
TTITLE4=Cherry Pie - Warrant
TTITLE5=Gypsy Road - Cinderella
TTITLE6=Wind Of Change - Scorpions
TTITLE7=Obvition - Terrorvision
TTITLE8=We´Re Not Gonna Take It - Twisted Sister
TTITLE9=White Wedding - Billy Idol
TTITLE10=Spirit Of Radio - Rush
TTITLE11=Silent Lucidity - Queensryche
TTITLE12=Once Bitten Twice Shy - Great White
TTITLE13=Nowhere - Therapy
TTITLE14=Word Up - Gun
TTITLE15=Dirty Love - Thunder
TTITLE16=Sweet Home Alabama - Lynyrd Skynyrd
TTITLE17=Gimme All Your Lovin' - Zz Top
TTITLE18=The Final Countdown - Europe
EXTD=
EXTT0=
EXTT1=
EXTT2=
EXTT3=
EXTT4=
EXTT5=
EXTT6=
EXTT7=
EXTT8=
EXTT9=
EXTT10=
EXTT11=
EXTT12=
EXTT13=
EXTT14=
EXTT15=
EXTT16=
EXTT17=
EXTT18=
PLAYORDER=
